<?xml version="1.0" encoding="UTF-8"?>
<svg id="Layer_2" data-name="Layer 2" xmlns="http://www.w3.org/2000/svg" width="232.15" height="146.54" viewBox="0 0 232.15 146.54">
  <defs>
    <style>
      .cls-1 {
        fill: #18181b;
      }
    </style>
  </defs>
  <g id="Layer_2-2" data-name="Layer 2">
    <path class="cls-1" d="M7.93,110.03c4.21-20.05,12.65-38.42,24.42-53.12,12.51-15.64,27.9-25.23,43.34-27.01,1.37-.16,2.36-1.4,2.2-2.77-.16-1.37-1.4-2.36-2.77-2.2-16.76,1.93-33.33,12.17-46.67,28.85-12.25,15.32-21.04,34.41-25.41,55.22-2.66,12.68-3.58,24.54-2.74,35.24.1,1.31,1.2,2.3,2.49,2.3h.2c1.38-.11,2.4-1.31,2.3-2.69-.8-10.23.09-21.61,2.65-33.83h-.01ZM232.13,141.15c-1.79-16.68-3.65-33.94-9.58-50.59-6.72-18.9-17.85-34.24-33.07-45.58-17.84-13.3-42.07-20.78-64.79-20-1.38.05-2.46,1.2-2.41,2.58s1.21,2.47,2.58,2.41c21.63-.74,44.67,6.37,61.63,19.02,14.42,10.75,24.96,25.3,31.35,43.25,5.73,16.1,7.55,33.05,9.32,49.45.14,1.27,1.21,2.23,2.48,2.23.09,0,.18,0,.27,0,1.37-.15,2.37-1.38,2.22-2.75h0ZM94.61,32.47c.47,0,.95-.13,1.37-.41,1.15-.76,1.47-2.31.71-3.46-4.79-7.27-4.83-17.44-.09-24.75.74-1.17.4-2.71-.77-3.45-1.15-.73-2.68-.41-3.43.73-5.78,8.92-5.73,21.34.12,30.22.48.73,1.28,1.12,2.09,1.12M106.77,31.76c.34,0,.68-.07,1.01-.22,1.26-.56,1.83-2.04,1.27-3.3-2.14-4.82-1.65-10.77,1.26-15.16.76-1.15.45-2.7-.7-3.46s-2.7-.45-3.46.7c-3.83,5.78-4.48,13.61-1.66,19.95.41.93,1.33,1.48,2.29,1.48h-.01ZM183.84,113.29c-.92-1.03-2.5-1.11-3.53-.19-13.41,12.05-31.49-.4-44.69-9.49-1.22-.84-2.4-1.65-3.52-2.41-3.09-2.08-6.36-4.1-9.87-5.56-2.52-4.88-6.78-8.56-11.19-9.03-5.11-.55-10.13,2.77-12.94,7.38-.59.97-1.08,2-1.51,3.05-2.34,1.24-4.57,2.7-6.71,4.18-1.09.76-2.23,1.57-3.42,2.41-12.78,9.07-30.29,21.48-43.24,9.49-1.01-.94-2.6-.88-3.53.14-.94,1.01-.88,2.6.14,3.53,4.93,4.56,10.26,6.34,15.68,6.34,12.1,0,24.61-8.87,33.85-15.42,1.17-.83,2.3-1.63,3.38-2.38.69-.48,1.39-.96,2.1-1.42-.26,1.95-.35,3.93-.32,5.88.19,12.12,4.89,24.08,12.83,32.71.69.75,1.63,1.54,2.57,1.22.52-.17.89-.65,1.23-1.1,4.63-6.27,8.31-13.33,10.87-20.83,2.12-6.24,3.46-13.04,2.38-19.54,1.73.98,3.38,2.05,4.92,3.09,1.11.75,2.27,1.55,3.48,2.38,9.5,6.54,22.36,15.4,34.79,15.4,5.56,0,11.03-1.77,16.08-6.31,1.03-.92,1.11-2.5.19-3.53h-.02Z"/>
    <circle class="cls-1" cx="49.09" cy="82.86" r="9.75"/>
    <circle class="cls-1" cx="173.09" cy="82.86" r="9.75"/>
  </g>
</svg>