<svg xmlns="http://www.w3.org/2000/svg" id="Layer_2" width="262.64" height="201.54" data-name="Layer 2" viewBox="0 0 262.64 201.54"><defs><style>.cls-1{fill:#18181b}</style></defs><g id="Layer_1-2" data-name="Layer 1"><path d="M21.55 110.04c4.21-20.05 12.65-38.42 24.42-53.12 12.51-15.64 27.9-25.23 43.34-27.01 1.37-.16 2.36-1.4 2.2-2.77a2.504 2.504 0 0 0-2.77-2.2c-16.76 1.93-33.33 12.17-46.67 28.85-12.25 15.32-21.04 34.41-25.41 55.22-2.66 12.68-3.58 24.54-2.74 35.24.1 1.31 1.2 2.3 2.49 2.3h.2c1.38-.11 2.4-1.31 2.3-2.69-.8-10.23.09-21.61 2.65-33.83ZM245.75 141.16c-1.79-16.68-3.65-33.94-9.58-50.59-6.72-18.9-17.85-34.24-33.07-45.58-17.84-13.3-42.07-20.78-64.79-20-1.38.05-2.46 1.2-2.41 2.58s1.21 2.47 2.58 2.41c21.63-.74 44.67 6.37 61.63 19.02 14.42 10.75 24.96 25.3 31.35 43.25 5.73 16.1 7.55 33.05 9.32 49.45a2.5 2.5 0 0 0 2.48 2.23c.09 0 .18 0 .27-.01a2.5 2.5 0 0 0 2.22-2.75ZM108.23 32.48c.47 0 .95-.13 1.37-.41 1.15-.76 1.47-2.31.71-3.46-4.79-7.27-4.83-17.44-.09-24.75a2.502 2.502 0 0 0-4.2-2.72c-5.78 8.92-5.73 21.34.12 30.22.48.73 1.28 1.12 2.09 1.12M120.39 31.77c.34 0 .68-.07 1.01-.22a2.503 2.503 0 0 0 1.27-3.3c-2.14-4.82-1.65-10.77 1.26-15.16a2.496 2.496 0 0 0-4.16-2.76c-3.83 5.78-4.48 13.61-1.66 19.95.41.93 1.33 1.48 2.29 1.48ZM197.46 113.3a2.5 2.5 0 0 0-3.53-.19c-13.41 12.05-31.49-.4-44.69-9.49-1.22-.84-2.4-1.65-3.52-2.41-3.09-2.08-6.36-4.1-9.87-5.56-2.52-4.88-6.78-8.56-11.19-9.03-5.11-.55-10.13 2.77-12.94 7.38-.59.97-1.08 2-1.51 3.05-2.34 1.24-4.57 2.7-6.71 4.18-1.09.76-2.23 1.57-3.42 2.41-12.78 9.07-30.29 21.48-43.24 9.49-1.01-.94-2.6-.88-3.53.14-.94 1.01-.88 2.6.14 3.53 4.93 4.56 10.26 6.34 15.68 6.34 12.1 0 24.61-8.87 33.85-15.42 1.17-.83 2.3-1.63 3.38-2.38a96 96 0 0 1 2.1-1.42c-.26 1.95-.35 3.93-.32 5.88.19 12.12 4.89 24.08 12.83 32.71.69.75 1.63 1.54 2.57 1.22.52-.17.89-.65 1.23-1.1 4.63-6.27 8.31-13.33 10.87-20.83 2.12-6.24 3.46-13.04 2.38-19.54 1.73.98 3.38 2.05 4.92 3.09 1.11.75 2.27 1.55 3.48 2.38 9.5 6.54 22.36 15.4 34.79 15.4 5.56 0 11.03-1.77 16.08-6.31a2.5 2.5 0 0 0 .19-3.53Z" class="cls-1"/><circle cx="62.71" cy="82.87" r="9.75" class="cls-1"/><circle cx="186.71" cy="82.87" r="9.75" class="cls-1"/><path d="M19.49 160.72h-.02c-3.1-1.04-5.51-1.52-7.61-1.52-7.47.1-11.47 3-11.87 8.66 0 2.92 1.63 5.34 4.83 7.18 1.45.96 4.23 2.21 8.5 3.79 3.33 1.3 5.01 3.04 5.01 5.12-.17 2.88-2.26 4.28-6.37 4.28-3.28 0-6.25-1.48-8.84-4.39l-.26-.3-.35.19c-.46.25-1.06.6-1.34.88-.49.43-.8.94-.92 1.51l-.05.23.15.19c3.13 3.96 7.04 6 11.64 6.05 7.05-.2 10.75-3.06 11-8.52-.05-3.64-2.28-6.47-6.65-8.43-4.91-1.99-7.63-3.18-8.59-3.77-2.08-1.15-3.16-2.46-3.2-3.85.18-2.91 2.56-4.39 7.28-4.52 3.62 0 7.93 1.51 12.8 4.49l.19.12.21-.06c.59-.18 1.03-.57 1.37-1.2.28-.4.62-1.01.62-1.63v-.23l-.18-.15c-1.91-1.61-4.38-3-7.35-4.12M44.87 171.95l-.41-.07c-1.36-.24-3.56-.38-6.38-.39.14-3.38.27-6.81.41-10.33l.02-.49-1.55-.11c-.88-.07-1.58-.12-2.09-.12h-.45l-.04.45c-.35 3.56-.64 7.3-.88 10.54-1.28.01-2.72.09-4.47.24l-.36.03-.09.35c-.11.43-.16.91-.16 1.46 0 .75.06 1.22.18 1.53l.1.26.28.05c1.41.23 2.79.36 4.21.39-.32 5.11-.5 9.61-.5 12.71 0 1.22.22 2.12.66 2.73.57.85 1.59 1.28 3.06 1.28 2.36 0 4.46-.49 6.24-1.45l.26-.14v-.3c0-.28.02-.51.03-.68.01-.13.02-.24.02-.36-.06-.76-.18-1.27-.4-1.65l-.16-.29-.33.04c-.9.11-2.03.33-2.97.53-1.23.14-1.46.14-1.48.14-.32 0-.32-.04-.32-.22 0-1.62.16-5.22.39-10.67l.07-1.55c1.44 0 2.8 0 4.12-.1 1.94-.13 2.44-.24 2.67-.31l.29-.09.05-.3c.07-.41.1-.87.1-1.44-.05-.43-.09-.83-.09-1.24v-.42ZM68.19 189.6c-.16-1.47-.42-3.92-.81-7.36-.75-5.93-1.32-9.32-1.8-10.67l-.12-.35h-.37c-1.42.07-2.41.3-3.04.72l-.24.16.02.29c.15 1.98.62 6.21 1.41 12.57-2.07 2.23-4.29 3.32-6.77 3.32-2.11 0-3.55-.58-4.42-1.79-.72-.84-1.08-2.3-1.08-4.33 0-2.13.51-5.39 1.47-9.44l.08-.34-.29-.19c-.79-.52-1.79-.84-2.97-.95l-.4-.04-.12.38c-1.42 4.39-2.14 8.03-2.14 10.81 0 2.98.68 5.33 2.02 6.97 1.52 2.08 4.14 3.13 7.8 3.13 2.88-.04 5.44-1.13 7.62-3.22.15.85.3 1.59.44 2.22l.12.57h.41c.91 0 1.95-.19 3-.56l.38-.13-.05-.4c-.03-.25-.08-.72-.15-1.38ZM92.05 159.45l-.37-.05c-.71-.1-1.21-.15-1.56-.15-.34 0-.72.06-1.16.13l-.68.11-.11.26c-.18.43-.38 2.16-.38 17.19 0 12.36.26 14.55.54 15.07l.08.14.14.07c.34.17.87.24 1.76.24.68 0 1.23-.12 1.64-.35l.23-.13.02-.26c.16-1.72.24-6.68.24-13.97 0-9.62-.13-16.33-.34-17.92l-.05-.37ZM80.09 171.15h-.03c-6.44.3-9.83 3.95-10.08 10.89.25 6.76 3.77 10.27 10.48 10.42 2.23 0 4.3-.75 6.17-2.22l.25-.2-.08-.31c-.2-.79-.34-1.33-.44-1.6-.12-.42-.39-.8-.7-1.22l-.24-.32-.37.17c-2.54 1.15-3.9 1.39-4.59 1.39-3.98-.04-5.94-2.11-5.99-6.29.18-4.19 2.06-6.3 5.71-6.43 1.56.1 3.3.55 5.16 1.35l.38.16.23-.35c.65-.98 1-1.94 1-2.77v-.24l-.19-.15c-1.81-1.46-4.06-2.22-6.69-2.27ZM114.83 171.2l-.35-.06-.17.32c-2.01 3.65-4.68 8.32-7.96 13.88-1.67-2.37-4.41-6.98-8.16-13.73l-.22-.4-.42.18c-.7.3-1.56.8-2.54 1.49l-.34.24.18.38c3.21 6.86 6.16 12.06 9.02 15.9l-2.86 4.85c-1.24 2.1-2.19 3.72-2.87 4.85l-.14.23.11.24c.44.93 1.34 1.57 2.68 1.91l.31.08.2-.24c1.59-1.93 4.4-6.25 8.59-13.21 4.88-8.52 7.48-13.6 7.74-15.1l.04-.25-.18-.18c-.69-.69-1.59-1.14-2.66-1.34ZM158.46 175.4c3.07-3 4.63-5.75 4.63-8.2-.3-5.26-4.02-7.96-11.07-8.01-3.36.09-6.75 1.08-10.11 2.93l.08-1.95-.33-.13c-.74-.28-1.3-.42-1.76-.42-1.42 0-1.62.1-1.71.15l-.23.12-.04.25c-1.28 8.14-1.93 16.44-1.93 24.66 0 1.99 0 4.04.1 6.12l.02.36.35.1c.61.17 1.19.26 1.77.26.64 0 1.11-.07 1.52-.22l.31-.12v-.33c.39-12.62.87-20.45 1.46-23.92 3.54-2.38 7.11-3.64 10.58-3.73 4.31.04 6.42 1.41 6.46 4.16 0 1.92-1.95 4.61-5.78 7.98l-.51.45.58.36c4.33 2.67 6.53 5.2 6.53 7.47-.18 3.07-2.23 4.57-6.27 4.57-2.66 0-5.51-.92-8.72-2.81l-.38-.22-.27.35c-.76.98-1.2 1.87-1.3 2.64l-.04.3.24.17c3.53 2.55 7.03 3.84 10.42 3.84 7.11-.1 10.76-3.06 10.86-8.8 0-2.72-1.78-5.46-5.45-8.34ZM187.86 189.64c-.15-1.46-.42-3.93-.82-7.4-.75-5.93-1.32-9.32-1.8-10.67l-.12-.35h-.37c-1.42.07-2.41.3-3.04.72l-.24.16.02.29c.14 1.98.62 6.2 1.42 12.57-2.07 2.23-4.29 3.32-6.77 3.32-2.11 0-3.55-.58-4.42-1.79-.72-.84-1.08-2.3-1.08-4.33 0-2.13.51-5.39 1.47-9.44l.08-.34-.29-.19c-.79-.52-1.79-.84-2.97-.95l-.4-.04-.12.38c-1.42 4.4-2.14 8.03-2.14 10.81 0 2.98.68 5.33 2.02 6.97 1.52 2.08 4.14 3.13 7.8 3.13 2.88-.04 5.44-1.13 7.62-3.22.14.84.3 1.58.43 2.21l.12.58h.41c.91 0 1.95-.19 3-.56l.38-.13-.05-.4c-.03-.25-.08-.7-.15-1.34ZM211.71 159.45l-.37-.05c-.71-.1-1.21-.15-1.56-.15s-.72.06-1.16.13l-.68.11-.11.26c-.18.43-.37 2.16-.37 17.19 0 12.36.26 14.55.54 15.07l.08.14.14.07c.34.17.87.24 1.76.24.68 0 1.23-.12 1.64-.35l.23-.13.02-.26c.16-1.72.24-6.68.24-13.97 0-9.62-.13-16.32-.34-17.92l-.05-.37ZM199.76 171.15h-.03c-6.44.3-9.83 3.95-10.08 10.89.25 6.76 3.77 10.27 10.48 10.42 2.23 0 4.3-.75 6.17-2.22l.25-.2-.08-.31c-.2-.79-.34-1.33-.44-1.6-.12-.42-.39-.8-.71-1.22l-.24-.32-.37.17c-2.54 1.15-3.9 1.39-4.59 1.39-3.98-.04-5.94-2.11-5.99-6.29.18-4.19 2.06-6.3 5.71-6.43 1.56.1 3.3.55 5.16 1.35l.38.16.23-.35c.65-.98 1-1.94 1-2.77v-.24l-.19-.15c-1.81-1.46-4.06-2.22-6.69-2.27ZM237.01 159.45l-.37-.05c-.71-.1-1.21-.15-1.56-.15s-.72.06-1.16.13l-.68.11-.11.26c-.18.43-.37 2.16-.37 17.19 0 12.36.26 14.55.54 15.07l.08.14.14.07c.34.17.87.24 1.76.24.68 0 1.23-.12 1.64-.35l.23-.13.02-.26c.16-1.72.24-6.68.24-13.97 0-9.62-.13-16.32-.34-17.92l-.05-.37ZM225.05 171.15h-.03c-6.44.3-9.83 3.95-10.08 10.89.25 6.76 3.77 10.27 10.48 10.42 2.23 0 4.3-.75 6.17-2.22l.25-.2-.08-.31c-.2-.79-.34-1.33-.44-1.6-.12-.42-.39-.8-.71-1.22l-.24-.32-.37.17c-2.54 1.15-3.9 1.39-4.59 1.39-3.98-.04-5.94-2.11-5.99-6.29.18-4.19 2.06-6.3 5.71-6.43 1.56.1 3.3.55 5.16 1.35l.38.16.23-.35c.65-.98 1-1.94 1-2.77v-.24l-.19-.15c-1.81-1.46-4.06-2.22-6.69-2.27ZM262.45 172.54c-.69-.69-1.59-1.14-2.66-1.34l-.35-.06-.17.32c-2.01 3.65-4.68 8.32-7.96 13.88-1.67-2.37-4.41-6.98-8.16-13.73l-.22-.4-.42.18c-.7.3-1.56.8-2.54 1.49l-.34.24.18.38c3.21 6.86 6.16 12.06 9.02 15.9l-2.86 4.84c-1.24 2.1-2.2 3.73-2.88 4.86l-.14.23.11.24c.44.93 1.34 1.57 2.68 1.91l.31.08.2-.24c1.59-1.93 4.4-6.25 8.59-13.21 4.88-8.52 7.48-13.6 7.74-15.1l.04-.25-.18-.18Z" class="cls-1"/></g></svg>